<svg xmlns="http://www.w3.org/2000/svg" viewBox="0 0 36.66 8.4" width="36.66" height="8.4">
  <path fill="#fff" d="M6.24,6.79v1.5H0V.11H2V6.79Z" />
  <path fill="#fff" d="M11.72,0a4.64,4.64,0,0,1,3.39,1.26,4,4,0,0,1,1.3,2.94,3.93,3.93,0,0,1-1.32,3A4.68,4.68,0,0,1,11.72,8.4,4.7,4.7,0,0,1,8.34,7.15a4,4,0,0,1,0-5.89A4.66,4.66,0,0,1,11.72,0Zm0,6.7A2.55,2.55,0,0,0,13.59,6,2.38,2.38,0,0,0,14.3,4.2a2.38,2.38,0,0,0-.71-1.81,2.55,2.55,0,0,0-1.87-.68,2.56,2.56,0,0,0-1.87.68A2.39,2.39,0,0,0,9.13,4.2,2.39,2.39,0,0,0,9.85,6,2.57,2.57,0,0,0,11.72,6.7Z" />
  <path fill="#fff" d="M25.69.67V2.46a7,7,0,0,0-3.06-.75,3.15,3.15,0,0,0-2.22.72,2.42,2.42,0,0,0-.78,1.85A2.2,2.2,0,0,0,20.41,6a3.08,3.08,0,0,0,2.05.67,3.35,3.35,0,0,0,1.36-.3v-1H22.63V4h3.23V7.29a3.48,3.48,0,0,1-1.48.8,6.73,6.73,0,0,1-2,.31,5.21,5.21,0,0,1-3.51-1.18,3.79,3.79,0,0,1-1.38-3,3.82,3.82,0,0,1,1.38-3A5.28,5.28,0,0,1,22.46,0,7.43,7.43,0,0,1,25.69.67Z" />
  <path fill="#fff" d="M32,0a4.66,4.66,0,0,1,3.39,1.26,4,4,0,0,1,0,5.89A4.71,4.71,0,0,1,32,8.4a4.71,4.71,0,0,1-3.39-1.25,3.92,3.92,0,0,1-1.3-2.95,4,4,0,0,1,1.29-2.94A4.68,4.68,0,0,1,32,0Zm0,6.7A2.57,2.57,0,0,0,33.85,6a2.42,2.42,0,0,0,.71-1.81,2.42,2.42,0,0,0-.71-1.81,2.93,2.93,0,0,0-3.75,0,2.42,2.42,0,0,0-.71,1.81A2.42,2.42,0,0,0,30.1,6,2.59,2.59,0,0,0,32,6.7Z" />
</svg>
